<svg width="16" height="16" viewBox="0 0 16 16" fill="none" xmlns="http://www.w3.org/2000/svg">
<path d="M2.16667 3.83366C2.16667 3.1433 2.72631 2.58366 3.41667 2.58366C4.10702 2.58366 4.66667 3.1433 4.66667 3.83366C4.66667 4.52402 4.10702 5.08366 3.41667 5.08366C2.72631 5.08366 2.16667 4.52402 2.16667 3.83366ZM3.41667 0.916992C1.80583 0.916992 0.5 2.22283 0.5 3.83366C0.5 5.44449 1.80583 6.75033 3.41667 6.75033C5.0275 6.75033 6.33333 5.44449 6.33333 3.83366C6.33333 2.22283 5.0275 0.916992 3.41667 0.916992ZM8 4.66699H14.6667V3.00033H8V4.66699ZM11.3333 12.167C11.3333 11.4767 11.893 10.917 12.5833 10.917C13.2737 10.917 13.8333 11.4767 13.8333 12.167C13.8333 12.8573 13.2737 13.417 12.5833 13.417C11.893 13.417 11.3333 12.8573 11.3333 12.167ZM12.5833 9.25033C10.9725 9.25033 9.66667 10.5562 9.66667 12.167C9.66667 13.7778 10.9725 15.0837 12.5833 15.0837C14.1942 15.0837 15.5 13.7778 15.5 12.167C15.5 10.5562 14.1942 9.25033 12.5833 9.25033ZM1.33333 11.3337V13.0003H8V11.3337H1.33333Z" fill="black"/>
</svg>
