<svg width="20" height="20" viewBox="0 0 20 20" fill="none" xmlns="http://www.w3.org/2000/svg">
<path d="M15.4479 16.306C13.9871 17.5691 12.0828 18.3332 10.0001 18.3332C5.39771 18.3332 1.66675 14.6022 1.66675 9.99984C1.66675 5.39746 5.39771 1.6665 10.0001 1.6665C14.6024 1.6665 18.3334 5.39746 18.3334 9.99984C18.3334 11.7799 17.7752 13.4297 16.8244 14.7837L14.1667 9.99984H16.6667C16.6667 6.31794 13.682 3.33317 10.0001 3.33317C6.31818 3.33317 3.33341 6.31794 3.33341 9.99984C3.33341 13.6818 6.31818 16.6665 10.0001 16.6665C11.7919 16.6665 13.4186 15.9596 14.6166 14.8095L15.4479 16.306Z" fill="black"/>
</svg>
